<svg version="1.1" id="Layer_1" xmlns="http://www.w3.org/2000/svg" xmlns:xlink="http://www.w3.org/1999/xlink" x="0px" y="0px"
	 width="100%" viewBox="0 0 280 297" enable-background="new 0 0 280 297" xml:space="preserve">
<path fill="#000000" opacity="1.000000" stroke="none" 
	d="
M158.000000,298.000000 
	C105.333336,298.000000 53.166679,298.000000 1.000014,298.000000 
	C1.000009,199.000015 1.000009,100.000038 1.000005,1.000041 
	C94.333305,1.000027 187.666611,1.000027 280.999939,1.000014 
	C280.999939,99.999962 280.999939,198.999924 280.999969,297.999939 
	C240.166672,298.000000 199.333328,298.000000 158.000000,298.000000 
M212.143417,176.969925 
	C212.887039,176.650482 213.603455,176.159790 214.378281,176.036697 
	C232.893768,173.095367 246.128128,163.297226 251.195938,145.035156 
	C254.034668,134.805634 255.298050,123.951126 255.815643,113.307442 
	C256.685669,95.415932 255.886093,77.515785 252.024261,59.882267 
	C249.629959,48.949688 245.391754,38.836109 237.329773,31.020664 
	C228.878250,22.827587 218.023651,19.589235 206.445297,19.058054 
	C199.464523,18.737797 192.457443,18.987890 185.462189,18.986647 
	C173.103348,18.984447 160.744522,18.986032 148.000000,18.986032 
	C148.000000,40.022308 148.000000,61.631027 148.000000,83.239746 
	C148.000000,84.694717 148.000000,86.149696 148.000000,87.799141 
	C156.126312,87.799141 163.861069,87.799141 172.525787,87.799141 
	C172.525787,69.825417 172.525787,52.027752 172.525787,34.000370 
	C182.094345,34.000370 190.741837,33.801594 199.375961,34.056374 
	C207.982254,34.310326 218.631531,41.896076 220.854263,49.993732 
	C223.403824,59.282047 226.485779,68.802040 226.689133,78.278198 
	C227.117523,98.239166 228.762604,118.363037 224.942749,138.201675 
	C221.951538,153.736725 214.748016,162.907867 196.190186,162.985733 
	C179.916519,163.054031 163.642349,163.000000 147.209717,163.000000 
	C147.209717,167.824753 147.209717,172.228668 147.209717,176.997910 
	C168.694977,176.997910 189.971375,176.997910 212.143417,176.969925 
M129.000000,258.499878 
	C129.000000,242.404480 129.000000,226.309097 129.000000,210.289734 
	C120.684151,210.289734 112.944725,210.289734 105.261955,210.289734 
	C105.141243,210.889923 105.023712,211.202316 105.023407,211.514847 
	C105.009178,226.012650 105.059723,240.510864 104.955063,255.007965 
	C104.933525,257.991180 104.336983,260.970215 104.000038,264.000000 
	C95.292755,264.000000 87.300194,264.109650 79.311974,263.970154 
	C70.765282,263.820862 63.735554,260.183044 59.095875,253.108459 
	C52.130154,242.487091 50.881004,230.101135 50.135067,217.878845 
	C49.486298,207.248657 49.744492,196.539490 50.080086,185.880264 
	C50.353100,177.208725 50.679047,168.446838 52.143959,159.924835 
	C54.828217,144.309372 62.238125,135.110229 80.719986,135.015778 
	C95.884094,134.938278 111.048927,135.007263 126.213409,134.986618 
	C127.466743,134.984909 128.719818,134.794159 129.632904,134.719177 
	C129.632904,129.858643 129.632904,125.448624 129.632904,121.474770 
	C124.323479,120.957176 119.408264,119.989899 114.514488,120.088417 
	C96.683205,120.447350 78.715187,118.243347 61.055302,122.063103 
	C47.143269,125.072220 35.695084,131.575378 28.887890,145.056717 
	C22.267115,158.168884 22.286980,172.373962 21.194971,186.328217 
	C20.490438,195.331100 21.283304,204.515945 22.104469,213.555710 
	C22.969166,223.074661 24.253704,232.599747 26.110142,241.972534 
	C28.167402,252.359283 33.175617,261.660217 41.234135,268.470520 
	C50.273830,276.110046 61.357471,279.138245 73.240952,279.012756 
	C79.405869,278.947632 85.572166,279.018555 91.737846,279.020142 
	C104.082207,279.023346 116.426567,279.021088 129.000000,279.021088 
	C129.000000,272.786804 129.000000,266.143311 129.000000,258.499878 
M108.677429,18.000284 
	C105.226372,17.490128 106.016037,19.995804 106.012360,21.832546 
	C105.988350,33.828423 106.000000,45.824371 106.000000,57.820297 
	C106.000000,67.765594 106.000000,77.710884 106.000000,87.776581 
	C114.181740,87.776581 121.918427,87.776581 129.998688,87.776581 
	C129.998688,65.435143 130.052795,43.314793 129.834991,21.197117 
	C129.824387,20.119455 127.483299,18.232405 126.136200,18.146084 
	C120.660553,17.795206 115.149284,18.000061 108.677429,18.000284 
M171.000000,228.500549 
	C171.000000,222.404373 171.000000,216.308197 171.000000,210.286011 
	C162.688217,210.286011 154.950577,210.286011 147.000671,210.286011 
	C147.000671,232.538254 146.953873,254.505569 147.129425,276.471100 
	C147.138885,277.654510 148.971603,279.794159 150.028442,279.840912 
	C156.943863,280.146790 163.879379,279.998352 171.000000,279.998352 
	C171.000000,262.776733 171.000000,246.138580 171.000000,228.500549 
z"/>
<path fill="#FFFFFF" opacity="1.000000" stroke="none" 
	d="
M211.695602,176.983917 
	C189.971375,176.997910 168.694977,176.997910 147.209717,176.997910 
	C147.209717,172.228668 147.209717,167.824753 147.209717,163.000000 
	C163.642349,163.000000 179.916519,163.054031 196.190186,162.985733 
	C214.748016,162.907867 221.951538,153.736725 224.942749,138.201675 
	C228.762604,118.363037 227.117523,98.239166 226.689133,78.278198 
	C226.485779,68.802040 223.403824,59.282047 220.854263,49.993732 
	C218.631531,41.896076 207.982254,34.310326 199.375961,34.056374 
	C190.741837,33.801594 182.094345,34.000370 172.525787,34.000370 
	C172.525787,52.027752 172.525787,69.825417 172.525787,87.799141 
	C163.861069,87.799141 156.126312,87.799141 148.000000,87.799141 
	C148.000000,86.149696 148.000000,84.694717 148.000000,83.239746 
	C148.000000,61.631027 148.000000,40.022308 148.000000,18.986032 
	C160.744522,18.986032 173.103348,18.984447 185.462189,18.986647 
	C192.457443,18.987890 199.464523,18.737797 206.445297,19.058054 
	C218.023651,19.589235 228.878250,22.827587 237.329773,31.020664 
	C245.391754,38.836109 249.629959,48.949688 252.024261,59.882267 
	C255.886093,77.515785 256.685669,95.415932 255.815643,113.307442 
	C255.298050,123.951126 254.034668,134.805634 251.195938,145.035156 
	C246.128128,163.297226 232.893768,173.095367 214.378281,176.036697 
	C213.603455,176.159790 212.887039,176.650482 211.695602,176.983917 
z"/>
<path fill="#FFFFFF" opacity="1.000000" stroke="none" 
	d="
M129.000000,258.999847 
	C129.000000,266.143311 129.000000,272.786804 129.000000,279.021088 
	C116.426567,279.021088 104.082207,279.023346 91.737846,279.020142 
	C85.572166,279.018555 79.405869,278.947632 73.240952,279.012756 
	C61.357471,279.138245 50.273830,276.110046 41.234135,268.470520 
	C33.175617,261.660217 28.167402,252.359283 26.110142,241.972534 
	C24.253704,232.599747 22.969166,223.074661 22.104469,213.555710 
	C21.283304,204.515945 20.490438,195.331100 21.194971,186.328217 
	C22.286980,172.373962 22.267115,158.168884 28.887890,145.056717 
	C35.695084,131.575378 47.143269,125.072220 61.055302,122.063103 
	C78.715187,118.243347 96.683205,120.447350 114.514488,120.088417 
	C119.408264,119.989899 124.323479,120.957176 129.632904,121.474770 
	C129.632904,125.448624 129.632904,129.858643 129.632904,134.719177 
	C128.719818,134.794159 127.466743,134.984909 126.213409,134.986618 
	C111.048927,135.007263 95.884094,134.938278 80.719986,135.015778 
	C62.238125,135.110229 54.828217,144.309372 52.143959,159.924835 
	C50.679047,168.446838 50.353100,177.208725 50.080086,185.880264 
	C49.744492,196.539490 49.486298,207.248657 50.135067,217.878845 
	C50.881004,230.101135 52.130154,242.487091 59.095875,253.108459 
	C63.735554,260.183044 70.765282,263.820862 79.311974,263.970154 
	C87.300194,264.109650 95.292755,264.000000 104.000038,264.000000 
	C104.336983,260.970215 104.933525,257.991180 104.955063,255.007965 
	C105.059723,240.510864 105.009178,226.012650 105.023407,211.514847 
	C105.023712,211.202316 105.141243,210.889923 105.261955,210.289734 
	C112.944725,210.289734 120.684151,210.289734 129.000000,210.289734 
	C129.000000,226.309097 129.000000,242.404480 129.000000,258.999847 
z"/>
<path fill="#FFFFFF" opacity="1.000000" stroke="none" 
	d="
M109.164291,18.000151 
	C115.149284,18.000061 120.660553,17.795206 126.136200,18.146084 
	C127.483299,18.232405 129.824387,20.119455 129.834991,21.197117 
	C130.052795,43.314793 129.998688,65.435143 129.998688,87.776581 
	C121.918427,87.776581 114.181740,87.776581 106.000000,87.776581 
	C106.000000,77.710884 106.000000,67.765594 106.000000,57.820297 
	C106.000000,45.824371 105.988350,33.828423 106.012360,21.832546 
	C106.016037,19.995804 105.226372,17.490128 109.164291,18.000151 
z"/>
<path fill="#FFFFFF" opacity="1.000000" stroke="none" 
	d="
M171.000000,229.000488 
	C171.000000,246.138580 171.000000,262.776733 171.000000,279.998352 
	C163.879379,279.998352 156.943863,280.146790 150.028442,279.840912 
	C148.971603,279.794159 147.138885,277.654510 147.129425,276.471100 
	C146.953873,254.505569 147.000671,232.538254 147.000671,210.286011 
	C154.950577,210.286011 162.688217,210.286011 171.000000,210.286011 
	C171.000000,216.308197 171.000000,222.404373 171.000000,229.000488 
z"/>
</svg>